<?xml version="1.0" standalone="no"?>
<!DOCTYPE svg PUBLIC "-//W3C//DTD SVG 20010904//EN"
 "http://www.w3.org/TR/2001/REC-SVG-20010904/DTD/svg10.dtd">
<svg version="1.0" xmlns="http://www.w3.org/2000/svg"
 width="604.000000pt" height="604.000000pt" viewBox="0 0 604.000000 604.000000"
 preserveAspectRatio="xMidYMid meet">
<metadata>
Created by potrace 1.14, written by Peter Selinger 2001-2017
</metadata>
<g transform="translate(0.000000,604.000000) scale(0.100000,-0.100000)"
fill="#000000" stroke="none">
<path d="M1925 5536 c-95 -44 -144 -117 -224 -336 -24 -63 -49 -129 -57 -147
-8 -17 -14 -34 -14 -38 0 -7 -141 -395 -160 -440 -5 -11 -20 -54 -35 -95 -15
-41 -31 -84 -36 -95 -5 -11 -24 -63 -43 -115 -86 -242 -168 -467 -176 -485
-11 -24 -222 -596 -225 -610 -1 -5 -7 -23 -14 -40 -7 -16 -30 -79 -52 -140
-22 -60 -45 -118 -50 -127 -5 -10 -9 -23 -9 -29 0 -6 -6 -25 -14 -42 -8 -18
-42 -108 -76 -202 -34 -93 -65 -179 -70 -190 -4 -11 -36 -96 -70 -190 -34 -93
-68 -184 -76 -202 -8 -17 -14 -34 -14 -38 0 -4 -57 -160 -126 -348 -70 -188
-140 -378 -156 -422 -16 -44 -45 -123 -64 -175 -20 -52 -53 -142 -74 -200 -21
-58 -49 -135 -63 -172 -18 -46 -22 -68 -14 -70 7 -2 484 -4 1061 -4 l1049 1
23 65 c12 36 41 124 64 195 22 72 73 227 112 345 38 118 71 220 72 225 1 6 33
105 71 220 38 116 70 212 70 215 0 3 20 64 43 135 206 628 256 781 258 790 1
6 27 87 57 180 31 94 65 197 75 231 26 81 43 112 85 155 46 47 97 70 156 71
75 0 159 -52 200 -125 14 -25 181 -515 186 -547 1 -11 58 -186 65 -205 5 -11
37 -108 71 -215 34 -107 92 -287 129 -400 37 -113 95 -293 130 -400 34 -107
83 -256 107 -330 25 -74 46 -142 48 -150 2 -8 10 -32 17 -53 l14 -38 770 768
771 768 -34 95 c-18 52 -35 100 -37 105 -2 6 -3 12 -3 15 0 3 -6 16 -13 30 -8
14 -15 30 -16 35 -7 32 -50 141 -59 147 -5 4 -7 8 -3 8 4 0 -6 35 -22 78 -16
42 -122 329 -235 637 -114 308 -208 565 -209 570 -1 6 -5 15 -9 22 -4 6 -18
42 -31 80 -30 86 -69 192 -96 263 -12 30 -26 71 -32 90 -6 19 -13 40 -16 45
-4 6 -7 12 -7 15 0 6 -23 66 -41 107 -8 17 -14 36 -14 42 0 6 -7 25 -15 43 -8
18 -39 103 -70 188 -92 254 -120 316 -161 357 -7 7 -14 16 -16 20 -7 18 -77
62 -113 72 -28 8 -407 11 -1265 11 l-1225 0 -50 -24z"/>
<path d="M5247 1393 c-686 -685 -690 -689 -693 -709 -7 -47 44 -87 86 -68 11
5 299 287 640 627 461 458 622 625 626 646 5 21 1 34 -15 50 -49 49 -35 61
-644 -546z"/>
<path d="M5613 917 c-183 -182 -335 -335 -338 -338 -2 -3 -6 -16 -9 -30 -7
-46 53 -85 92 -60 20 12 660 651 653 651 -3 0 2 5 12 11 41 24 7 99 -46 99
-29 0 -67 -35 -364 -333z"/>
</g>
</svg>
